<?xml version="1.0" encoding="UTF-8"?> <svg xmlns="http://www.w3.org/2000/svg" width="303" height="58" viewBox="0 0 303 58" fill="none"> <rect width="303" height="58" fill="#D2233C"></rect> <path d="M88.257 18.5654V21.3814C90.753 21.4454 92.737 21.8827 94.209 22.6934C95.7024 23.4827 96.769 24.5067 97.409 25.7654C98.0704 27.0241 98.401 28.4001 98.401 29.8934C98.401 30.8534 98.2304 31.8347 97.889 32.8374C97.569 33.8401 97.0144 34.7681 96.225 35.6214C95.457 36.4534 94.4224 37.1361 93.121 37.6694C91.8197 38.2027 90.1984 38.4907 88.257 38.5334V42.0534H83.905V38.5334C81.9424 38.4907 80.2997 38.2027 78.977 37.6694C77.6757 37.1361 76.641 36.4427 75.873 35.5894C75.105 34.7361 74.561 33.8187 74.241 32.8374C73.921 31.8347 73.761 30.8534 73.761 29.8934C73.761 28.7841 73.9424 27.7281 74.305 26.7254C74.6677 25.7227 75.2437 24.8267 76.033 24.0374C76.8224 23.2481 77.8677 22.6187 79.169 22.1494C80.4704 21.6801 82.049 21.4241 83.905 21.3814V18.5654H88.257ZM83.905 25.1574C82.5184 25.2214 81.409 25.4667 80.577 25.8934C79.7664 26.2987 79.1797 26.8427 78.817 27.5254C78.4757 28.2081 78.305 28.9867 78.305 29.8614C78.305 30.8214 78.497 31.6641 78.881 32.3894C79.2864 33.0934 79.8944 33.6587 80.705 34.0854C81.537 34.4907 82.6037 34.7254 83.905 34.7894V25.1574ZM88.257 34.7894C89.5584 34.7254 90.6144 34.4907 91.425 34.0854C92.257 33.6587 92.865 33.0934 93.249 32.3894C93.6544 31.6641 93.857 30.8214 93.857 29.8614C93.857 28.9867 93.6757 28.2081 93.313 27.5254C92.9717 26.8427 92.385 26.2987 91.553 25.8934C90.7424 25.4667 89.6437 25.2214 88.257 25.1574V34.7894ZM102.732 18.8854H107.084V29.9254C107.084 30.4587 107.074 31.0561 107.052 31.7174C107.031 32.3787 107.01 33.0294 106.988 33.6694C106.967 34.2881 106.946 34.8321 106.924 35.3014C106.903 35.7494 106.882 36.0587 106.86 36.2294H106.956L117.516 18.8854H123.308V41.7334H118.988V30.7574C118.988 30.1814 118.999 29.5521 119.02 28.8694C119.042 28.1654 119.063 27.4934 119.084 26.8534C119.127 26.2134 119.159 25.6587 119.18 25.1894C119.223 24.6987 119.255 24.3787 119.276 24.2294H119.148L108.556 41.7334H102.732V18.8854ZM147.156 41.7334H142.324V22.9174H136.724C136.596 23.8987 136.457 24.9654 136.308 26.1174C136.18 27.2694 136.031 28.4427 135.86 29.6374C135.711 30.8107 135.551 31.9307 135.38 32.9974C135.209 34.0427 135.039 34.9707 134.868 35.7814C134.591 37.1041 134.217 38.2347 133.748 39.1734C133.3 40.1121 132.671 40.8267 131.86 41.3174C131.071 41.8081 130.036 42.0534 128.756 42.0534C128.329 42.0534 127.924 42.0214 127.54 41.9574C127.156 41.8934 126.793 41.8081 126.452 41.7014V37.7334C126.729 37.8187 126.996 37.8934 127.252 37.9574C127.529 38.0214 127.828 38.0534 128.148 38.0534C128.575 38.0534 128.927 37.9147 129.204 37.6374C129.481 37.3601 129.727 36.8907 129.94 36.2294C130.153 35.5467 130.367 34.6081 130.58 33.4134C130.687 32.9014 130.815 32.1761 130.964 31.2374C131.113 30.2774 131.284 29.1574 131.476 27.8774C131.689 26.5761 131.903 25.1681 132.116 23.6534C132.329 22.1174 132.532 20.5281 132.724 18.8854H147.156V41.7334ZM152.92 41.7334V18.8854H157.752V27.6534H159.672C161.826 27.6534 163.586 27.9521 164.952 28.5494C166.338 29.1467 167.362 29.9681 168.024 31.0134C168.685 32.0587 169.016 33.2534 169.016 34.5974C169.016 36.0907 168.685 37.3707 168.024 38.4374C167.362 39.5041 166.338 40.3254 164.952 40.9014C163.565 41.4561 161.773 41.7334 159.576 41.7334H152.92ZM159.384 37.7654C160.856 37.7654 162.008 37.5307 162.84 37.0614C163.693 36.5921 164.12 35.7707 164.12 34.5974C164.12 33.7867 163.906 33.1681 163.48 32.7414C163.074 32.3147 162.488 32.0267 161.72 31.8774C160.973 31.7067 160.066 31.6214 159 31.6214H157.752V37.7654H159.384ZM182.99 41.7334L177.486 23.8134H177.358C177.379 24.2401 177.411 24.8801 177.454 25.7334C177.497 26.5867 177.539 27.5041 177.582 28.4854C177.625 29.4454 177.646 30.3201 177.646 31.1094V41.7334H173.326V18.8854H179.918L185.326 36.3574H185.422L191.15 18.8854H197.742V41.7334H193.23V30.9174C193.23 30.1921 193.241 29.3601 193.262 28.4214C193.305 27.4827 193.337 26.5974 193.358 25.7654C193.401 24.9121 193.433 24.2721 193.454 23.8454H193.326L187.438 41.7334H182.99ZM203.514 41.7334V18.8854H208.346V27.6534H209.914C212.026 27.6534 213.764 27.9521 215.13 28.5494C216.495 29.1467 217.498 29.9681 218.138 31.0134C218.799 32.0587 219.13 33.2534 219.13 34.5974C219.13 36.0907 218.799 37.3707 218.138 38.4374C217.476 39.5041 216.452 40.3254 215.066 40.9014C213.7 41.4561 211.93 41.7334 209.754 41.7334H203.514ZM209.626 37.7654C211.055 37.7654 212.175 37.5307 212.986 37.0614C213.818 36.5921 214.234 35.7707 214.234 34.5974C214.234 33.7867 214.042 33.1681 213.658 32.7414C213.295 32.3147 212.751 32.0267 212.026 31.8774C211.3 31.7067 210.426 31.6214 209.402 31.6214H208.346V37.7654H209.626ZM221.914 41.7334V18.8854H226.746V41.7334H221.914Z" fill="#FFFEFE"></path> </svg> 