<?xml version="1.0" encoding="UTF-8"?> <svg xmlns="http://www.w3.org/2000/svg" width="234" height="56" viewBox="0 0 234 56" fill="none"> <rect width="234" height="56" fill="#D2233C"></rect> <path d="M61.6 42H56.768V32.144H47.712V42H42.88V19.152H47.712V28.112H56.768V19.152H61.6V42ZM88.0848 30.544C88.0848 32.3147 87.8608 33.9253 87.4128 35.376C86.9861 36.8053 86.3248 38.0427 85.4288 39.088C84.5541 40.1333 83.4234 40.9333 82.0368 41.488C80.6714 42.0427 79.0608 42.32 77.2048 42.32C75.3488 42.32 73.7274 42.0427 72.3408 41.488C70.9754 40.912 69.8448 40.112 68.9488 39.088C68.0741 38.0427 67.4128 36.7947 66.9648 35.344C66.5381 33.8933 66.3248 32.2827 66.3248 30.512C66.3248 28.144 66.7088 26.0853 67.4768 24.336C68.2661 22.5867 69.4608 21.232 71.0608 20.272C72.6821 19.2907 74.7408 18.8 77.2368 18.8C79.7114 18.8 81.7488 19.2907 83.3488 20.272C84.9488 21.232 86.1328 22.5973 86.9008 24.368C87.6901 26.1173 88.0848 28.176 88.0848 30.544ZM71.4128 30.544C71.4128 32.144 71.6154 33.52 72.0208 34.672C72.4261 35.824 73.0554 36.7093 73.9088 37.328C74.7621 37.9467 75.8608 38.256 77.2048 38.256C78.5914 38.256 79.7008 37.9467 80.5328 37.328C81.3861 36.7093 82.0048 35.824 82.3888 34.672C82.7941 33.52 82.9968 32.144 82.9968 30.544C82.9968 28.1333 82.5488 26.2453 81.6528 24.88C80.7568 23.5147 79.2848 22.832 77.2368 22.832C75.8714 22.832 74.7621 23.1413 73.9088 23.76C73.0554 24.3787 72.4261 25.264 72.0208 26.416C71.6154 27.568 71.4128 28.944 71.4128 30.544ZM99.9215 19.152C101.948 19.152 103.644 19.344 105.01 19.728C106.396 20.0907 107.431 20.6987 108.114 21.552C108.818 22.384 109.17 23.5147 109.17 24.944C109.17 25.7973 109.031 26.576 108.753 27.28C108.476 27.984 108.071 28.56 107.538 29.008C107.026 29.456 106.396 29.744 105.65 29.872V30.032C106.418 30.1813 107.111 30.448 107.73 30.832C108.348 31.216 108.839 31.7707 109.202 32.496C109.564 33.2213 109.746 34.1813 109.746 35.376C109.746 36.7627 109.404 37.9573 108.722 38.96C108.06 39.9413 107.1 40.6987 105.842 41.232C104.583 41.744 103.09 42 101.362 42H92.8175V19.152H99.9215ZM100.466 28.208C101.874 28.208 102.844 27.984 103.378 27.536C103.932 27.088 104.21 26.4373 104.21 25.584C104.21 24.7093 103.89 24.08 103.25 23.696C102.61 23.312 101.596 23.12 100.21 23.12H97.6495V28.208H100.466ZM97.6495 32.048V38H100.818C102.268 38 103.282 37.7227 103.858 37.168C104.434 36.592 104.722 35.8347 104.722 34.896C104.722 34.32 104.594 33.8187 104.338 33.392C104.103 32.9653 103.687 32.6347 103.09 32.4C102.492 32.1653 101.682 32.048 100.658 32.048H97.6495ZM135.054 30.544C135.054 32.3147 134.83 33.9253 134.382 35.376C133.955 36.8053 133.294 38.0427 132.398 39.088C131.523 40.1333 130.392 40.9333 129.006 41.488C127.64 42.0427 126.03 42.32 124.174 42.32C122.318 42.32 120.696 42.0427 119.31 41.488C117.944 40.912 116.814 40.112 115.918 39.088C115.043 38.0427 114.382 36.7947 113.934 35.344C113.507 33.8933 113.294 32.2827 113.294 30.512C113.294 28.144 113.678 26.0853 114.446 24.336C115.235 22.5867 116.43 21.232 118.03 20.272C119.651 19.2907 121.71 18.8 124.206 18.8C126.68 18.8 128.718 19.2907 130.318 20.272C131.918 21.232 133.102 22.5973 133.87 24.368C134.659 26.1173 135.054 28.176 135.054 30.544ZM118.382 30.544C118.382 32.144 118.584 33.52 118.99 34.672C119.395 35.824 120.024 36.7093 120.878 37.328C121.731 37.9467 122.83 38.256 124.174 38.256C125.56 38.256 126.67 37.9467 127.502 37.328C128.355 36.7093 128.974 35.824 129.358 34.672C129.763 33.52 129.966 32.144 129.966 30.544C129.966 28.1333 129.518 26.2453 128.622 24.88C127.726 23.5147 126.254 22.832 124.206 22.832C122.84 22.832 121.731 23.1413 120.878 23.76C120.024 24.3787 119.395 25.264 118.99 26.416C118.584 27.568 118.382 28.944 118.382 30.544ZM149.482 22.864C148.565 22.864 147.744 23.0453 147.018 23.408C146.314 23.7707 145.717 24.2933 145.226 24.976C144.736 25.6373 144.362 26.448 144.106 27.408C143.872 28.368 143.754 29.4453 143.754 30.64C143.754 32.2613 143.946 33.648 144.33 34.8C144.736 35.9307 145.365 36.7947 146.218 37.392C147.072 37.9893 148.16 38.288 149.482 38.288C150.421 38.288 151.349 38.1813 152.266 37.968C153.205 37.7547 154.218 37.456 155.306 37.072V41.136C154.304 41.5413 153.312 41.84 152.33 42.032C151.349 42.224 150.25 42.32 149.034 42.32C146.688 42.32 144.746 41.84 143.21 40.88C141.696 39.8987 140.576 38.5333 139.85 36.784C139.125 35.0133 138.762 32.9547 138.762 30.608C138.762 28.88 138.997 27.3013 139.466 25.872C139.936 24.4213 140.618 23.1733 141.514 22.128C142.432 21.0827 143.552 20.272 144.874 19.696C146.218 19.12 147.754 18.832 149.482 18.832C150.613 18.832 151.744 18.9813 152.874 19.28C154.026 19.5573 155.125 19.9413 156.17 20.432L154.602 24.368C153.749 23.9627 152.885 23.6107 152.01 23.312C151.157 23.0133 150.314 22.864 149.482 22.864ZM168.961 42H164.129V23.184H157.921V19.152H175.169V23.184H168.961V42ZM178.693 19.152H183.045V30.192C183.045 30.7253 183.034 31.3227 183.013 31.984C182.991 32.6453 182.97 33.296 182.949 33.936C182.927 34.5547 182.906 35.0987 182.885 35.568C182.863 36.016 182.842 36.3253 182.821 36.496H182.917L193.477 19.152H199.269V42H194.949V31.024C194.949 30.448 194.959 29.8187 194.981 29.136C195.002 28.432 195.023 27.76 195.045 27.12C195.087 26.48 195.119 25.9253 195.141 25.456C195.183 24.9653 195.215 24.6453 195.237 24.496H195.109L184.517 42H178.693V19.152Z" fill="#FFFEFE"></path> </svg> 