<?xml version="1.0" encoding="UTF-8"?> <svg xmlns="http://www.w3.org/2000/svg" width="301" height="60" viewBox="0 0 301 60" fill="none"> <rect width="301" height="60" fill="#D2233C"></rect> <path d="M37.936 18.832V21.648C40.432 21.712 42.416 22.1493 43.888 22.96C45.3813 23.7493 46.448 24.7733 47.088 26.032C47.7493 27.2907 48.08 28.6667 48.08 30.16C48.08 31.12 47.9093 32.1013 47.568 33.104C47.248 34.1067 46.6933 35.0347 45.904 35.888C45.136 36.72 44.1013 37.4027 42.8 37.936C41.4987 38.4693 39.8773 38.7573 37.936 38.8V42.32H33.584V38.8C31.6213 38.7573 29.9787 38.4693 28.656 37.936C27.3547 37.4027 26.32 36.7093 25.552 35.856C24.784 35.0027 24.24 34.0853 23.92 33.104C23.6 32.1013 23.44 31.12 23.44 30.16C23.44 29.0507 23.6213 27.9947 23.984 26.992C24.3467 25.9893 24.9227 25.0933 25.712 24.304C26.5013 23.5147 27.5467 22.8853 28.848 22.416C30.1493 21.9467 31.728 21.6907 33.584 21.648V18.832H37.936ZM33.584 25.424C32.1973 25.488 31.088 25.7333 30.256 26.16C29.4453 26.5653 28.8587 27.1093 28.496 27.792C28.1547 28.4747 27.984 29.2533 27.984 30.128C27.984 31.088 28.176 31.9307 28.56 32.656C28.9653 33.36 29.5733 33.9253 30.384 34.352C31.216 34.7573 32.2827 34.992 33.584 35.056V25.424ZM37.936 35.056C39.2373 34.992 40.2933 34.7573 41.104 34.352C41.936 33.9253 42.544 33.36 42.928 32.656C43.3333 31.9307 43.536 31.088 43.536 30.128C43.536 29.2533 43.3547 28.4747 42.992 27.792C42.6507 27.1093 42.064 26.5653 41.232 26.16C40.4213 25.7333 39.3227 25.488 37.936 25.424V35.056ZM73.1473 30.544C73.1473 32.3147 72.9233 33.9253 72.4753 35.376C72.0486 36.8053 71.3873 38.0427 70.4913 39.088C69.6166 40.1333 68.4859 40.9333 67.0993 41.488C65.7339 42.0427 64.1233 42.32 62.2673 42.32C60.4113 42.32 58.7899 42.0427 57.4033 41.488C56.0379 40.912 54.9073 40.112 54.0113 39.088C53.1366 38.0427 52.4753 36.7947 52.0273 35.344C51.6006 33.8933 51.3873 32.2827 51.3873 30.512C51.3873 28.144 51.7713 26.0853 52.5393 24.336C53.3286 22.5867 54.5233 21.232 56.1233 20.272C57.7446 19.2907 59.8033 18.8 62.2993 18.8C64.7739 18.8 66.8113 19.2907 68.4113 20.272C70.0113 21.232 71.1953 22.5973 71.9633 24.368C72.7526 26.1173 73.1473 28.176 73.1473 30.544ZM56.4753 30.544C56.4753 32.144 56.6779 33.52 57.0833 34.672C57.4886 35.824 58.1179 36.7093 58.9713 37.328C59.8246 37.9467 60.9233 38.256 62.2673 38.256C63.6539 38.256 64.7633 37.9467 65.5953 37.328C66.4486 36.7093 67.0673 35.824 67.4513 34.672C67.8566 33.52 68.0593 32.144 68.0593 30.544C68.0593 28.1333 67.6113 26.2453 66.7153 24.88C65.8193 23.5147 64.3473 22.832 62.2993 22.832C60.9339 22.832 59.8246 23.1413 58.9713 23.76C58.1179 24.3787 57.4886 25.264 57.0833 26.416C56.6779 27.568 56.4753 28.944 56.4753 30.544ZM85.7113 42H80.8793V23.184H74.6713V19.152H91.9193V23.184H85.7113V42ZM115.554 30.544C115.554 32.3147 115.33 33.9253 114.882 35.376C114.455 36.8053 113.794 38.0427 112.898 39.088C112.023 40.1333 110.892 40.9333 109.506 41.488C108.14 42.0427 106.53 42.32 104.674 42.32C102.818 42.32 101.196 42.0427 99.8095 41.488C98.4442 40.912 97.3135 40.112 96.4175 39.088C95.5428 38.0427 94.8815 36.7947 94.4335 35.344C94.0068 33.8933 93.7935 32.2827 93.7935 30.512C93.7935 28.144 94.1775 26.0853 94.9455 24.336C95.7348 22.5867 96.9295 21.232 98.5295 20.272C100.151 19.2907 102.21 18.8 104.706 18.8C107.18 18.8 109.218 19.2907 110.818 20.272C112.418 21.232 113.602 22.5973 114.37 24.368C115.159 26.1173 115.554 28.176 115.554 30.544ZM98.8815 30.544C98.8815 32.144 99.0842 33.52 99.4895 34.672C99.8948 35.824 100.524 36.7093 101.378 37.328C102.231 37.9467 103.33 38.256 104.674 38.256C106.06 38.256 107.17 37.9467 108.002 37.328C108.855 36.7093 109.474 35.824 109.858 34.672C110.263 33.52 110.466 32.144 110.466 30.544C110.466 28.1333 110.018 26.2453 109.122 24.88C108.226 23.5147 106.754 22.832 104.706 22.832C103.34 22.832 102.231 23.1413 101.378 23.76C100.524 24.3787 99.8948 25.264 99.4895 26.416C99.0842 27.568 98.8815 28.944 98.8815 30.544ZM134.718 19.152V23.152H125.118V42H120.286V19.152H134.718ZM149.958 42L148.294 36.56H139.974L138.31 42H133.094L141.158 19.056H147.078L155.174 42H149.958ZM145.478 27.184C145.371 26.8213 145.232 26.3627 145.062 25.808C144.891 25.2533 144.72 24.688 144.55 24.112C144.379 23.536 144.24 23.0347 144.134 22.608C144.027 23.0347 143.878 23.568 143.686 24.208C143.515 24.8267 143.344 25.424 143.174 26C143.024 26.5547 142.907 26.9493 142.822 27.184L141.19 32.496H147.142L145.478 27.184ZM176.148 42H171.316V23.184H165.716C165.588 24.1653 165.449 25.232 165.3 26.384C165.172 27.536 165.022 28.7093 164.852 29.904C164.702 31.0773 164.542 32.1973 164.372 33.264C164.201 34.3093 164.03 35.2373 163.86 36.048C163.582 37.3707 163.209 38.5013 162.74 39.44C162.292 40.3787 161.662 41.0933 160.852 41.584C160.062 42.0747 159.028 42.32 157.748 42.32C157.321 42.32 156.916 42.288 156.532 42.224C156.148 42.16 155.785 42.0747 155.444 41.968V38C155.721 38.0853 155.988 38.16 156.243 38.224C156.521 38.288 156.82 38.32 157.14 38.32C157.566 38.32 157.918 38.1813 158.196 37.904C158.473 37.6267 158.718 37.1573 158.932 36.496C159.145 35.8133 159.358 34.8747 159.572 33.68C159.678 33.168 159.806 32.4427 159.956 31.504C160.105 30.544 160.276 29.424 160.468 28.144C160.681 26.8427 160.894 25.4347 161.108 23.92C161.321 22.384 161.524 20.7947 161.716 19.152H176.148V42ZM195.063 42H181.911V19.152H195.063V23.12H186.743V28.144H194.487V32.112H186.743V38H195.063V42ZM207.114 19.152C210.058 19.152 212.202 19.792 213.546 21.072C214.911 22.3307 215.594 24.0693 215.594 26.288C215.594 27.2907 215.444 28.2507 215.146 29.168C214.847 30.064 214.346 30.8747 213.642 31.6C212.959 32.304 212.052 32.8587 210.922 33.264C209.791 33.6693 208.394 33.872 206.73 33.872H204.65V42H199.818V19.152H207.114ZM206.858 23.12H204.65V29.904H206.25C207.167 29.904 207.956 29.7867 208.618 29.552C209.279 29.3173 209.791 28.944 210.154 28.432C210.516 27.92 210.698 27.2587 210.698 26.448C210.698 25.3173 210.388 24.4853 209.77 23.952C209.151 23.3973 208.18 23.12 206.858 23.12ZM233.063 42H219.911V19.152H233.063V23.12H224.743V28.144H232.487V32.112H224.743V38H233.063V42ZM245.498 33.232L240.154 42H234.777L241.274 31.952C240.655 31.696 240.036 31.3227 239.418 30.832C238.799 30.32 238.287 29.648 237.882 28.816C237.476 27.9627 237.274 26.9173 237.274 25.68C237.274 23.568 238.031 21.9573 239.546 20.848C241.06 19.7173 243.183 19.152 245.914 19.152H253.338V42H248.506V33.232H245.498ZM246.106 23.12C245.274 23.12 244.559 23.216 243.962 23.408C243.386 23.6 242.938 23.9093 242.618 24.336C242.319 24.7627 242.17 25.328 242.17 26.032C242.17 27.0347 242.5 27.8347 243.161 28.432C243.844 29.008 244.868 29.296 246.234 29.296H248.506V23.12H246.106Z" fill="#FFFEFE"></path> </svg> 