<?xml version="1.0" encoding="UTF-8"?> <svg xmlns="http://www.w3.org/2000/svg" width="264" height="60" viewBox="0 0 264 60" fill="none"> <rect width="264" height="60" fill="#D2233C"></rect> <path d="M24.88 42V19.152H39.312V23.152H29.712V27.92H31.632C33.7867 27.92 35.5467 28.2187 36.912 28.816C38.2987 29.4133 39.3227 30.2347 39.984 31.28C40.6453 32.3253 40.976 33.52 40.976 34.864C40.976 36.3573 40.6453 37.6373 39.984 38.704C39.3227 39.7707 38.2987 40.592 36.912 41.168C35.5253 41.7227 33.7333 42 31.536 42H24.88ZM31.344 38.032C32.816 38.032 33.968 37.7973 34.8 37.328C35.6533 36.8587 36.08 36.0373 36.08 34.864C36.08 34.0533 35.8667 33.4347 35.44 33.008C35.0347 32.5813 34.448 32.2933 33.68 32.144C32.9333 31.9733 32.0267 31.888 30.96 31.888H29.712V38.032H31.344ZM45.2863 42V19.152H50.1183V27.92H51.6863C53.7983 27.92 55.5369 28.2187 56.9023 28.816C58.2676 29.4133 59.2703 30.2347 59.9103 31.28C60.5716 32.3253 60.9023 33.52 60.9023 34.864C60.9023 36.3573 60.5716 37.6373 59.9103 38.704C59.2489 39.7707 58.2249 40.592 56.8383 41.168C55.4729 41.7227 53.7023 42 51.5263 42H45.2863ZM51.3983 38.032C52.8276 38.032 53.9476 37.7973 54.7583 37.328C55.5903 36.8587 56.0063 36.0373 56.0063 34.864C56.0063 34.0533 55.8143 33.4347 55.4303 33.008C55.0676 32.5813 54.5236 32.2933 53.7983 32.144C53.0729 31.9733 52.1983 31.888 51.1743 31.888H50.1183V38.032H51.3983ZM63.6863 42V19.152H68.5183V42H63.6863ZM92.3663 42H87.5343V23.184H81.9343C81.8063 24.1653 81.6676 25.232 81.5183 26.384C81.3903 27.536 81.2409 28.7093 81.0703 29.904C80.9209 31.0773 80.7609 32.1973 80.5903 33.264C80.4196 34.3093 80.2489 35.2373 80.0783 36.048C79.8009 37.3707 79.4276 38.5013 78.9583 39.44C78.5103 40.3787 77.8809 41.0933 77.0703 41.584C76.2809 42.0747 75.2463 42.32 73.9663 42.32C73.5396 42.32 73.1343 42.288 72.7503 42.224C72.3663 42.16 72.0036 42.0747 71.6623 41.968V38C71.9396 38.0853 72.2063 38.16 72.4622 38.224C72.7396 38.288 73.0383 38.32 73.3583 38.32C73.7849 38.32 74.1369 38.1813 74.4143 37.904C74.6916 37.6267 74.9369 37.1573 75.1503 36.496C75.3636 35.8133 75.5769 34.8747 75.7903 33.68C75.8969 33.168 76.0249 32.4427 76.1743 31.504C76.3236 30.544 76.4943 29.424 76.6863 28.144C76.8996 26.8427 77.1129 25.4347 77.3263 23.92C77.5396 22.384 77.7423 20.7947 77.9343 19.152H92.3663V42ZM118.866 30.544C118.866 32.3147 118.642 33.9253 118.194 35.376C117.767 36.8053 117.106 38.0427 116.21 39.088C115.335 40.1333 114.205 40.9333 112.818 41.488C111.453 42.0427 109.842 42.32 107.986 42.32C106.13 42.32 104.509 42.0427 103.122 41.488C101.757 40.912 100.626 40.112 99.73 39.088C98.8553 38.0427 98.194 36.7947 97.746 35.344C97.3193 33.8933 97.106 32.2827 97.106 30.512C97.106 28.144 97.49 26.0853 98.258 24.336C99.0473 22.5867 100.242 21.232 101.842 20.272C103.463 19.2907 105.522 18.8 108.018 18.8C110.493 18.8 112.53 19.2907 114.13 20.272C115.73 21.232 116.914 22.5973 117.682 24.368C118.471 26.1173 118.866 28.176 118.866 30.544ZM102.194 30.544C102.194 32.144 102.397 33.52 102.802 34.672C103.207 35.824 103.837 36.7093 104.69 37.328C105.543 37.9467 106.642 38.256 107.986 38.256C109.373 38.256 110.482 37.9467 111.314 37.328C112.167 36.7093 112.786 35.824 113.17 34.672C113.575 33.52 113.778 32.144 113.778 30.544C113.778 28.1333 113.33 26.2453 112.434 24.88C111.538 23.5147 110.066 22.832 108.018 22.832C106.653 22.832 105.543 23.1413 104.69 23.76C103.837 24.3787 103.207 25.264 102.802 26.416C102.397 27.568 102.194 28.944 102.194 30.544ZM129.703 35.25H121.844V31.5938H129.703V35.25ZM143.42 22.864C142.502 22.864 141.681 23.0453 140.956 23.408C140.252 23.7707 139.654 24.2933 139.164 24.976C138.673 25.6373 138.3 26.448 138.044 27.408C137.809 28.368 137.692 29.4453 137.692 30.64C137.692 32.2613 137.884 33.648 138.268 34.8C138.673 35.9307 139.302 36.7947 140.156 37.392C141.009 37.9893 142.097 38.288 143.42 38.288C144.358 38.288 145.286 38.1813 146.204 37.968C147.142 37.7547 148.156 37.456 149.244 37.072V41.136C148.241 41.5413 147.249 41.84 146.268 42.032C145.286 42.224 144.188 42.32 142.972 42.32C140.625 42.32 138.684 41.84 137.148 40.88C135.633 39.8987 134.513 38.5333 133.788 36.784C133.062 35.0133 132.7 32.9547 132.7 30.608C132.7 28.88 132.934 27.3013 133.404 25.872C133.873 24.4213 134.556 23.1733 135.452 22.128C136.369 21.0827 137.489 20.272 138.812 19.696C140.156 19.12 141.692 18.832 143.42 18.832C144.55 18.832 145.681 18.9813 146.812 19.28C147.964 19.5573 149.062 19.9413 150.108 20.432L148.54 24.368C147.686 23.9627 146.822 23.6107 145.948 23.312C145.094 23.0133 144.252 22.864 143.42 22.864ZM162.899 42H158.067V23.184H151.859V19.152H169.107V23.184H162.899V42ZM184.364 42L182.7 36.56H174.38L172.716 42H167.5L175.564 19.056H181.484L189.58 42H184.364ZM179.884 27.184C179.777 26.8213 179.639 26.3627 179.468 25.808C179.297 25.2533 179.127 24.688 178.956 24.112C178.785 23.536 178.647 23.0347 178.54 22.608C178.433 23.0347 178.284 23.568 178.092 24.208C177.921 24.8267 177.751 25.424 177.58 26C177.431 26.5547 177.313 26.9493 177.228 27.184L175.596 32.496H181.548L179.884 27.184ZM210.554 42H205.722V23.184H200.122C199.994 24.1653 199.855 25.232 199.706 26.384C199.578 27.536 199.428 28.7093 199.258 29.904C199.108 31.0773 198.948 32.1973 198.778 33.264C198.607 34.3093 198.436 35.2373 198.266 36.048C197.988 37.3707 197.615 38.5013 197.146 39.44C196.698 40.3787 196.068 41.0933 195.258 41.584C194.468 42.0747 193.434 42.32 192.154 42.32C191.727 42.32 191.322 42.288 190.938 42.224C190.554 42.16 190.191 42.0747 189.85 41.968V38C190.127 38.0853 190.394 38.16 190.65 38.224C190.927 38.288 191.226 38.32 191.546 38.32C191.972 38.32 192.324 38.1813 192.602 37.904C192.879 37.6267 193.124 37.1573 193.338 36.496C193.551 35.8133 193.764 34.8747 193.978 33.68C194.084 33.168 194.212 32.4427 194.362 31.504C194.511 30.544 194.682 29.424 194.874 28.144C195.087 26.8427 195.3 25.4347 195.514 23.92C195.727 22.384 195.93 20.7947 196.122 19.152H210.554V42ZM237.054 30.544C237.054 32.3147 236.83 33.9253 236.382 35.376C235.955 36.8053 235.294 38.0427 234.398 39.088C233.523 40.1333 232.392 40.9333 231.006 41.488C229.64 42.0427 228.03 42.32 226.174 42.32C224.318 42.32 222.696 42.0427 221.31 41.488C219.944 40.912 218.814 40.112 217.918 39.088C217.043 38.0427 216.382 36.7947 215.934 35.344C215.507 33.8933 215.294 32.2827 215.294 30.512C215.294 28.144 215.678 26.0853 216.446 24.336C217.235 22.5867 218.43 21.232 220.03 20.272C221.651 19.2907 223.71 18.8 226.206 18.8C228.68 18.8 230.718 19.2907 232.318 20.272C233.918 21.232 235.102 22.5973 235.87 24.368C236.659 26.1173 237.054 28.176 237.054 30.544ZM220.382 30.544C220.382 32.144 220.584 33.52 220.99 34.672C221.395 35.824 222.024 36.7093 222.878 37.328C223.731 37.9467 224.83 38.256 226.174 38.256C227.56 38.256 228.67 37.9467 229.502 37.328C230.355 36.7093 230.974 35.824 231.358 34.672C231.763 33.52 231.966 32.144 231.966 30.544C231.966 28.1333 231.518 26.2453 230.622 24.88C229.726 23.5147 228.254 22.832 226.206 22.832C224.84 22.832 223.731 23.1413 222.878 23.76C222.024 24.3787 221.395 25.264 220.99 26.416C220.584 27.568 220.382 28.944 220.382 30.544Z" fill="#FFFEFE"></path> </svg> 