<?xml version="1.0" encoding="UTF-8"?> <svg xmlns="http://www.w3.org/2000/svg" width="286" height="60" viewBox="0 0 286 60" fill="none"> <rect width="269.292" height="60" fill="#D2233C"></rect> <path d="M45.238 30.544C45.238 32.3147 45.014 33.9253 44.566 35.376C44.1393 36.8053 43.478 38.0427 42.582 39.088C41.7073 40.1333 40.5767 40.9333 39.19 41.488C37.8247 42.0427 36.214 42.32 34.358 42.32C32.502 42.32 30.8807 42.0427 29.494 41.488C28.1287 40.912 26.998 40.112 26.102 39.088C25.2273 38.0427 24.566 36.7947 24.118 35.344C23.6913 33.8933 23.478 32.2827 23.478 30.512C23.478 28.144 23.862 26.0853 24.63 24.336C25.4193 22.5867 26.614 21.232 28.214 20.272C29.8353 19.2907 31.894 18.8 34.39 18.8C36.8647 18.8 38.902 19.2907 40.502 20.272C42.102 21.232 43.286 22.5973 44.054 24.368C44.8433 26.1173 45.238 28.176 45.238 30.544ZM28.566 30.544C28.566 32.144 28.7687 33.52 29.174 34.672C29.5793 35.824 30.2087 36.7093 31.062 37.328C31.9153 37.9467 33.014 38.256 34.358 38.256C35.7447 38.256 36.854 37.9467 37.686 37.328C38.5393 36.7093 39.158 35.824 39.542 34.672C39.9473 33.52 40.15 32.144 40.15 30.544C40.15 28.1333 39.702 26.2453 38.806 24.88C37.91 23.5147 36.438 22.832 34.39 22.832C33.0247 22.832 31.9153 23.1413 31.062 23.76C30.2087 24.3787 29.5793 25.264 29.174 26.416C28.7687 27.568 28.566 28.944 28.566 30.544ZM76.501 42H70.997L62.709 30.416V42H57.877V19.152H62.709V30.224L70.901 19.152H76.053L67.733 30.128L76.501 42ZM99.488 30.544C99.488 32.3147 99.264 33.9253 98.816 35.376C98.3893 36.8053 97.728 38.0427 96.832 39.088C95.9573 40.1333 94.8267 40.9333 93.44 41.488C92.0747 42.0427 90.464 42.32 88.608 42.32C86.752 42.32 85.1307 42.0427 83.744 41.488C82.3787 40.912 81.248 40.112 80.352 39.088C79.4773 38.0427 78.816 36.7947 78.368 35.344C77.9413 33.8933 77.728 32.2827 77.728 30.512C77.728 28.144 78.112 26.0853 78.88 24.336C79.6693 22.5867 80.864 21.232 82.464 20.272C84.0853 19.2907 86.144 18.8 88.64 18.8C91.1147 18.8 93.152 19.2907 94.752 20.272C96.352 21.232 97.536 22.5973 98.304 24.368C99.0933 26.1173 99.488 28.176 99.488 30.544ZM82.816 30.544C82.816 32.144 83.0187 33.52 83.424 34.672C83.8293 35.824 84.4587 36.7093 85.312 37.328C86.1653 37.9467 87.264 38.256 88.608 38.256C89.9947 38.256 91.104 37.9467 91.936 37.328C92.7893 36.7093 93.408 35.824 93.792 34.672C94.1973 33.52 94.4 32.144 94.4 30.544C94.4 28.1333 93.952 26.2453 93.056 24.88C92.16 23.5147 90.688 22.832 88.64 22.832C87.2747 22.832 86.1653 23.1413 85.312 23.76C84.4587 24.3787 83.8293 25.264 83.424 26.416C83.0187 27.568 82.816 28.944 82.816 30.544ZM113.885 42L108.381 24.08H108.253C108.274 24.5067 108.306 25.1467 108.349 26C108.391 26.8533 108.434 27.7707 108.477 28.752C108.519 29.712 108.541 30.5867 108.541 31.376V42H104.221V19.152H110.813L116.221 36.624H116.317L122.045 19.152H128.637V42H124.125V31.184C124.125 30.4587 124.135 29.6267 124.157 28.688C124.199 27.7493 124.231 26.864 124.253 26.032C124.295 25.1787 124.327 24.5387 124.349 24.112H124.221L118.333 42H113.885ZM134.408 42V19.152H152.488V42H147.656V23.184H139.24V42H134.408ZM172.236 42L170.572 36.56H162.252L160.588 42H155.372L163.436 19.056H169.356L177.452 42H172.236ZM167.756 27.184C167.649 26.8213 167.511 26.3627 167.34 25.808C167.169 25.2533 166.999 24.688 166.828 24.112C166.657 23.536 166.519 23.0347 166.412 22.608C166.305 23.0347 166.156 23.568 165.964 24.208C165.793 24.8267 165.623 25.424 165.452 26C165.303 26.5547 165.185 26.9493 165.1 27.184L163.468 32.496H169.42L167.756 27.184ZM199.066 42H194.234V32.144H185.178V42H180.346V19.152H185.178V28.112H194.234V19.152H199.066V42ZM204.815 19.152H209.167V30.192C209.167 30.7253 209.156 31.3227 209.135 31.984C209.113 32.6453 209.092 33.296 209.071 33.936C209.049 34.5547 209.028 35.0987 209.007 35.568C208.985 36.016 208.964 36.3253 208.943 36.496H209.039L219.599 19.152H225.391V42H221.071V31.024C221.071 30.448 221.081 29.8187 221.103 29.136C221.124 28.432 221.145 27.76 221.167 27.12C221.209 26.48 221.241 25.9253 221.263 25.456C221.305 24.9653 221.337 24.6453 221.359 24.496H221.231L210.639 42H204.815V19.152ZM231.158 19.152H235.51V30.192C235.51 30.7253 235.5 31.3227 235.478 31.984C235.457 32.6453 235.436 33.296 235.414 33.936C235.393 34.5547 235.372 35.0987 235.35 35.568C235.329 36.016 235.308 36.3253 235.286 36.496H235.382L245.942 19.152H251.734V42H247.414V31.024C247.414 30.448 247.425 29.8187 247.446 29.136C247.468 28.432 247.489 27.76 247.51 27.12C247.553 26.48 247.585 25.9253 247.606 25.456C247.649 24.9653 247.681 24.6453 247.702 24.496H247.574L236.982 42H231.158V19.152Z" fill="#FFFEFE"></path> </svg> 