<?xml version="1.0" encoding="UTF-8"?> <svg xmlns="http://www.w3.org/2000/svg" width="301" height="60" viewBox="0 0 301 60" fill="none"> <rect width="301" height="60" fill="#D2233C"></rect> <path d="M24.88 19.152H29.232V30.192C29.232 30.7253 29.2213 31.3227 29.2 31.984C29.1787 32.6453 29.1573 33.296 29.136 33.936C29.1147 34.5547 29.0933 35.0987 29.072 35.568C29.0507 36.016 29.0293 36.3253 29.008 36.496H29.104L39.664 19.152H45.456V42H41.136V31.024C41.136 30.448 41.1467 29.8187 41.168 29.136C41.1893 28.432 41.2107 27.76 41.232 27.12C41.2747 26.48 41.3067 25.9253 41.328 25.456C41.3707 24.9653 41.4027 24.6453 41.424 24.496H41.296L30.704 42H24.88V19.152ZM60.9198 22.864C60.0024 22.864 59.1811 23.0453 58.4558 23.408C57.7518 23.7707 57.1544 24.2933 56.6638 24.976C56.1731 25.6373 55.7998 26.448 55.5438 27.408C55.3091 28.368 55.1918 29.4453 55.1918 30.64C55.1918 32.2613 55.3838 33.648 55.7678 34.8C56.1731 35.9307 56.8024 36.7947 57.6558 37.392C58.5091 37.9893 59.5971 38.288 60.9198 38.288C61.8584 38.288 62.7864 38.1813 63.7038 37.968C64.6424 37.7547 65.6558 37.456 66.7438 37.072V41.136C65.7411 41.5413 64.7491 41.84 63.7678 42.032C62.7864 42.224 61.6878 42.32 60.4718 42.32C58.1251 42.32 56.1838 41.84 54.6478 40.88C53.1331 39.8987 52.0131 38.5333 51.2878 36.784C50.5624 35.0133 50.1998 32.9547 50.1998 30.608C50.1998 28.88 50.4344 27.3013 50.9038 25.872C51.3731 24.4213 52.0558 23.1733 52.9518 22.128C53.8691 21.0827 54.9891 20.272 56.3118 19.696C57.6558 19.12 59.1918 18.832 60.9198 18.832C62.0504 18.832 63.1811 18.9813 64.3118 19.28C65.4638 19.5573 66.5624 19.9413 67.6078 20.432L66.0398 24.368C65.1864 23.9627 64.3224 23.6107 63.4478 23.312C62.5944 23.0133 61.7518 22.864 60.9198 22.864ZM80.3988 42H75.5668V23.184H69.3588V19.152H86.6068V23.184H80.3988V42ZM110.241 30.544C110.241 32.3147 110.017 33.9253 109.569 35.376C109.142 36.8053 108.481 38.0427 107.585 39.088C106.71 40.1333 105.58 40.9333 104.193 41.488C102.828 42.0427 101.217 42.32 99.361 42.32C97.505 42.32 95.8837 42.0427 94.497 41.488C93.1317 40.912 92.001 40.112 91.105 39.088C90.2303 38.0427 89.569 36.7947 89.121 35.344C88.6943 33.8933 88.481 32.2827 88.481 30.512C88.481 28.144 88.865 26.0853 89.633 24.336C90.4223 22.5867 91.617 21.232 93.217 20.272C94.8383 19.2907 96.897 18.8 99.393 18.8C101.868 18.8 103.905 19.2907 105.505 20.272C107.105 21.232 108.289 22.5973 109.057 24.368C109.846 26.1173 110.241 28.176 110.241 30.544ZM93.569 30.544C93.569 32.144 93.7717 33.52 94.177 34.672C94.5823 35.824 95.2117 36.7093 96.065 37.328C96.9183 37.9467 98.017 38.256 99.361 38.256C100.748 38.256 101.857 37.9467 102.689 37.328C103.542 36.7093 104.161 35.824 104.545 34.672C104.95 33.52 105.153 32.144 105.153 30.544C105.153 28.1333 104.705 26.2453 103.809 24.88C102.913 23.5147 101.441 22.832 99.393 22.832C98.0277 22.832 96.9183 23.1413 96.065 23.76C95.2117 24.3787 94.5823 25.264 94.177 26.416C93.7717 27.568 93.569 28.944 93.569 30.544ZM122.27 19.152C125.214 19.152 127.358 19.792 128.702 21.072C130.067 22.3307 130.75 24.0693 130.75 26.288C130.75 27.2907 130.6 28.2507 130.302 29.168C130.003 30.064 129.502 30.8747 128.798 31.6C128.115 32.304 127.208 32.8587 126.078 33.264C124.947 33.6693 123.55 33.872 121.886 33.872H119.806V42H114.974V19.152H122.27ZM122.014 23.12H119.806V29.904H121.406C122.323 29.904 123.112 29.7867 123.774 29.552C124.435 29.3173 124.947 28.944 125.31 28.432C125.672 27.92 125.854 27.2587 125.854 26.448C125.854 25.3173 125.544 24.4853 124.926 23.952C124.307 23.3973 123.336 23.12 122.014 23.12ZM135.068 19.152H139.42V30.192C139.42 30.7253 139.409 31.3227 139.388 31.984C139.366 32.6453 139.345 33.296 139.324 33.936C139.302 34.5547 139.281 35.0987 139.26 35.568C139.238 36.016 139.217 36.3253 139.196 36.496H139.292L149.852 19.152H155.644V42H151.324V31.024C151.324 30.448 151.334 29.8187 151.356 29.136C151.377 28.432 151.398 27.76 151.42 27.12C151.462 26.48 151.494 25.9253 151.516 25.456C151.558 24.9653 151.59 24.6453 151.612 24.496H151.484L140.892 42H135.068V19.152ZM169.091 33.232L163.747 42H158.371L164.867 31.952C164.249 31.696 163.63 31.3227 163.011 30.832C162.393 30.32 161.881 29.648 161.475 28.816C161.07 27.9627 160.867 26.9173 160.867 25.68C160.867 23.568 161.625 21.9573 163.139 20.848C164.654 19.7173 166.777 19.152 169.507 19.152H176.931V42H172.099V33.232H169.091ZM169.699 23.12C168.867 23.12 168.153 23.216 167.555 23.408C166.979 23.6 166.531 23.9093 166.211 24.336C165.913 24.7627 165.763 25.328 165.763 26.032C165.763 27.0347 166.094 27.8347 166.755 28.432C167.438 29.008 168.462 29.296 169.827 29.296H172.099V23.12H169.699ZM201.863 35.312C201.223 36.7627 200.54 38.0213 199.815 39.088C199.111 40.1333 198.204 40.9333 197.095 41.488C195.985 42.0427 194.535 42.32 192.743 42.32C192.188 42.32 191.58 42.2773 190.919 42.192C190.257 42.1067 189.649 41.9893 189.095 41.84V37.68C189.607 37.8933 190.172 38.0427 190.791 38.128C191.409 38.2133 191.985 38.256 192.519 38.256C193.223 38.256 193.788 38.1387 194.215 37.904C194.663 37.6693 195.015 37.3493 195.271 36.944C195.548 36.5173 195.772 36.0587 195.943 35.568L188.039 19.152H193.159L197.415 29.04C197.521 29.2533 197.649 29.5307 197.799 29.872C197.948 30.2133 198.097 30.5653 198.247 30.928C198.396 31.2907 198.513 31.6107 198.599 31.888H198.759C198.844 31.632 198.951 31.3227 199.079 30.96C199.228 30.576 199.377 30.192 199.527 29.808C199.697 29.4027 199.847 29.0507 199.975 28.752L203.943 19.152H208.935L201.863 35.312ZM219.114 19.152C222.058 19.152 224.202 19.792 225.546 21.072C226.911 22.3307 227.594 24.0693 227.594 26.288C227.594 27.2907 227.444 28.2507 227.146 29.168C226.847 30.064 226.346 30.8747 225.642 31.6C224.959 32.304 224.052 32.8587 222.922 33.264C221.791 33.6693 220.394 33.872 218.73 33.872H216.65V42H211.818V19.152H219.114ZM218.858 23.12H216.65V29.904H218.25C219.167 29.904 219.956 29.7867 220.618 29.552C221.279 29.3173 221.791 28.944 222.154 28.432C222.516 27.92 222.698 27.2587 222.698 26.448C222.698 25.3173 222.388 24.4853 221.77 23.952C221.151 23.3973 220.18 23.12 218.858 23.12ZM244.302 42L242.638 36.56H234.318L232.654 42H227.438L235.502 19.056H241.422L249.518 42H244.302ZM239.822 27.184C239.715 26.8213 239.576 26.3627 239.406 25.808C239.235 25.2533 239.064 24.688 238.894 24.112C238.723 23.536 238.584 23.0347 238.478 22.608C238.371 23.0347 238.222 23.568 238.03 24.208C237.859 24.8267 237.688 25.424 237.518 26C237.368 26.5547 237.251 26.9493 237.166 27.184L235.534 32.496H241.486L239.822 27.184ZM260.091 33.232L254.747 42H249.371L255.867 31.952C255.249 31.696 254.63 31.3227 254.011 30.832C253.393 30.32 252.881 29.648 252.475 28.816C252.07 27.9627 251.867 26.9173 251.867 25.68C251.867 23.568 252.625 21.9573 254.139 20.848C255.654 19.7173 257.777 19.152 260.507 19.152H267.931V42H263.099V33.232H260.091ZM260.699 23.12C259.867 23.12 259.153 23.216 258.555 23.408C257.979 23.6 257.531 23.9093 257.211 24.336C256.913 24.7627 256.763 25.328 256.763 26.032C256.763 27.0347 257.094 27.8347 257.755 28.432C258.438 29.008 259.462 29.296 260.827 29.296H263.099V23.12H260.699Z" fill="#FFFEFE"></path> </svg> 